<?xml version="1.0" encoding="utf-8"?>
<!-- Generator: Adobe Illustrator 23.0.5, SVG Export Plug-In . SVG Version: 6.00 Build 0)  -->
<svg version="1.1" id="publicdomainvectors.org" xmlns="http://www.w3.org/2000/svg" xmlns:xlink="http://www.w3.org/1999/xlink"
	 x="0px" y="0px" viewBox="0 0 571.35 595.6" style="enable-background:new 0 0 571.35 595.6;" xml:space="preserve">
<style type="text/css">
	.st0{fill-rule:evenodd;clip-rule:evenodd;fill:#D49E68;}
	.st1{fill-rule:evenodd;clip-rule:evenodd;fill:#E0AB77;}
	.st2{fill-rule:evenodd;clip-rule:evenodd;fill:#F0BB87;}
	.st3{fill-rule:evenodd;clip-rule:evenodd;fill:#E0D0C0;}
	.st4{fill-rule:evenodd;clip-rule:evenodd;fill:#F0E5DA;}
	.st5{fill-rule:evenodd;clip-rule:evenodd;fill:#DEA56D;}
	.st6{fill-rule:evenodd;clip-rule:evenodd;fill:#BF8E5E;}
	.st7{fill-rule:evenodd;clip-rule:evenodd;fill:#FFCC99;}
	.st8{fill-rule:evenodd;clip-rule:evenodd;fill:#FFFFFF;}
</style>
<g>
	<g>
		<path class="st0" d="M379.44,507.77l-85.94-0.85l-46.65-19.99c-13.65-5.85-28.7-3.67-39.83,5.1c-2.65,2.09-4.01,5.06-3.85,8.43
			c0.15,3.37,1.77,6.21,4.6,8.05l48.85,31.78c15.21,9.89,30.62,14.74,48.75,15.34l74.07,2.43V507.77z"/>
		<path class="st1" d="M350.79,504.19l-85.94-0.85l-46.65-19.99c-13.65-5.85-28.7-3.67-39.82,5.1c-2.65,2.09-4.01,5.06-3.86,8.43
			c0.15,3.37,1.78,6.21,4.61,8.05l48.85,31.78c15.21,9.89,30.62,14.74,48.75,15.34l74.07,2.43V504.19z"/>
		<path class="st2" d="M314.21,502.72l-85.94-0.85l-46.65-19.99c-13.65-5.85-28.7-3.67-39.82,5.1c-2.65,2.09-4.01,5.06-3.86,8.43
			c0.15,3.37,1.77,6.21,4.61,8.05l48.85,31.78c15.21,9.89,30.62,14.74,48.75,15.34l74.07,2.43V502.72z"/>
		<path class="st3" d="M165.92,190.35h133.37v222.19H165.92c-22.69,0-43.31-9.27-58.24-24.21c-14.93-14.93-24.21-35.55-24.21-58.24
			V272.8c0-22.69,9.27-43.31,24.21-58.25C122.61,199.62,143.23,190.35,165.92,190.35L165.92,190.35z M261.7,227.94h-95.78
			c-12.32,0-23.53,5.05-31.67,13.19c-8.14,8.14-13.19,19.35-13.19,31.67v57.29c0,12.32,5.05,23.53,13.19,31.67
			c8.14,8.14,19.35,13.19,31.67,13.19h95.78V227.94z"/>
		<polygon class="st4" points="177.51,152.41 406.56,152.41 381.17,462.77 202.91,462.77 		"/>
		<g>
			<path class="st2" d="M43.52,249.82l39.39-46.07c12.34-14.44,32.77-17.93,49.21-8.42l39.5,22.85c2.55,1.48,4.13,3.81,4.55,6.73
				c0.42,2.92-0.44,5.6-2.48,7.73l-3.75,3.93c-9.77,10.24-24.63,12.6-37.09,5.89l-4.9-2.64L43.52,249.82z"/>
			<path class="st5" d="M85.17,243.8c13.26-1.52,21.71-7.25,23.47-18.82c2.73,10.18,10.74,14.77,21.76,16.17
				C116.55,254.9,101.8,259.16,85.17,243.8z"/>
		</g>
		<path class="st6" d="M296.5,254.45c26.25,2.73,46.86,29.37,46.86,61.83c0,27.6-14.9,50.99-35.5,59.05
			c8.05-19.86,2.05-38.27-4.52-58.45C297.33,298.46,290.77,278.34,296.5,254.45L296.5,254.45z M289.3,378.25
			c12.15-18.73,6.3-36.69-0.23-56.73c-6.28-19.27-13.11-40.21-8.21-65.83c-22.97,6.17-40.14,30.95-40.14,60.58
			C240.72,349.44,262.23,376.53,289.3,378.25z"/>
		<g>
			<path class="st7" d="M18.09,250.64l102.3-27.31c12.96-3.46,26.38,4.31,29.84,17.27v0c3.46,12.96-4.31,26.39-17.27,29.84
				l10.77-2.87c12.96-3.46,26.38,4.31,29.84,17.27v0c3.46,12.96-4.31,26.39-17.27,29.84l-10.77,2.88
				c12.96-3.46,26.38,4.31,29.84,17.27l0,0c3.06,11.45-2.66,23.27-12.98,28.25c4.22,2.38,7.78,6.04,10,10.73v0
				c5.75,12.12,0.54,26.73-11.57,32.48l-74.26,35.24c-12.12,5.75-26.73,0.54-32.48-11.57h0c-2.41-5.08-2.89-10.6-1.75-15.72
				c2.18-9.76-2.87-19.47-12.1-23.3c-6.78-2.81-12.24-8.63-14.27-16.23h0c-0.74-2.79-0.97-5.6-0.73-8.33
				c0.74-8.52-3.58-16.21-11.24-20.03c-6.06-3.02-10.85-8.51-12.72-15.52v0c-1.87-7.01-0.45-14.16,3.29-19.79
				c4.74-7.12,4.65-15.94-0.24-22.96c-1.56-2.25-2.77-4.8-3.52-7.59v0C-2.64,267.52,5.13,254.09,18.09,250.64z"/>
			<path class="st2" d="M28.9,292.81l72.18-19.27c2.08-0.56,4.24,0.69,4.8,2.78l0,0c0.56,2.08-0.69,4.24-2.77,4.8l-72.18,19.27
				c-2.08,0.56-4.24-0.69-4.8-2.78l0,0C25.57,295.53,26.82,293.37,28.9,292.81z"/>
			<path class="st2" d="M42.64,344.3l72.18-19.27c2.08-0.56,4.24,0.69,4.8,2.78l0,0c0.56,2.08-0.69,4.24-2.77,4.8l-72.18,19.27
				c-2.08,0.56-4.24-0.69-4.8-2.78l0,0C39.31,347.01,40.56,344.85,42.64,344.3z"/>
			<path class="st2" d="M66.39,393.22l62.52-19.62c2.06-0.65,4.25,0.51,4.88,2.58l0,0c0.63,2.06-0.54,4.28-2.6,4.92l-62.52,19.62
				c-2.06,0.64-4.25-0.51-4.88-2.58l0,0C63.16,396.08,64.33,393.86,66.39,393.22z"/>
		</g>
		<path class="st7" d="M571.35,515.91l-46.28-8.94c-24.74-4.78-45.06-13.31-65.79-27.64c-13-8.98-28-13.88-44.81-14.61l-1.78-0.08
			c-22.66-0.98-42.31,3.34-62.48,13.72l-47.67,24.53l-38.8,4.19c-5.34,0.58-9.72,3.1-12.89,7.44c-1.81,2.48-2.94,5.15-3.38,7.97
			l-12.58-0.12l-46.65-20c-13.65-5.85-28.7-3.67-39.82,5.1c-2.65,2.09-4.01,5.06-3.86,8.43c0.15,3.37,1.78,6.21,4.61,8.05
			L198,555.75c15.21,9.89,30.62,14.74,48.75,15.34l92.58,3.04l118.12-16.6l70.87,38.07L571.35,515.91z"/>
	</g>
	<path class="st8" d="M291.18,124.92C232.3,87.26,305.5,41.64,288.79,0C345.29,39.25,290.39,83.28,291.18,124.92L291.18,124.92z
		 M358.87,140.04c-0.56-29.17,37.91-60.02-1.67-87.52C368.9,81.69,317.62,113.65,358.87,140.04L358.87,140.04z M222.82,131.85
		c-0.56-29.17,37.91-60.02-1.67-87.52C232.86,73.5,181.57,105.47,222.82,131.85z"/>
</g>
</svg>
